HIERARCHY
ROOT Hips
{
	OFFSET 0.00000 0.00000 0.00000
	CHANNELS 6 Xposition Yposition Zposition Zrotation Yrotation Xrotation 
	JOINT LHipJoint
	{
		OFFSET 0 0 0
		CHANNELS 3 Zrotation Yrotation Xrotation
		JOINT LeftHip
		{
			OFFSET 1.48831 -1.59570 0.95625
			CHANNELS 3 Zrotation Yrotation Xrotation
			JOINT LeftKnee
			{
				OFFSET 2.20856 -6.06797 0.00000
				CHANNELS 3 Zrotation Yrotation Xrotation
				JOINT LeftAnkle
				{
					OFFSET 2.62924 -7.22379 0.00000
					CHANNELS 3 Zrotation Yrotation Xrotation
					JOINT LeftToe
					{
						OFFSET 0.16802 -0.46163 2.41673
						CHANNELS 3 Zrotation Yrotation Xrotation
						End Site
						{
							OFFSET 0.00000 -0.00000 1.23760
						}
					}
				}
			}
		}
	}
	JOINT RHipJoint
	{
		OFFSET 0 0 0
		CHANNELS 3 Zrotation Yrotation Xrotation
		JOINT RightHip
		{
			OFFSET -1.56796 -1.59570 0.95625
			CHANNELS 3 Zrotation Yrotation Xrotation
			JOINT RightKnee
			{
				OFFSET -2.29239 -6.29829 0.00000
				CHANNELS 3 Zrotation Yrotation Xrotation
				JOINT RightAnkle
				{
					OFFSET -2.66963 -7.33475 0.00000
					CHANNELS 3 Zrotation Yrotation Xrotation
					JOINT RightToe
					{
						OFFSET -0.18185 -0.49964 2.34359
						CHANNELS 3 Zrotation Yrotation Xrotation
						End Site
						{
							OFFSET -0.00000 -0.00000 1.20477
						}
					}
				}
			}
		}
	}
	JOINT lowerback
	{
		OFFSET 0 0 0
		CHANNELS 3 Zrotation Yrotation Xrotation
		JOINT Chest
		{
			OFFSET 0.03505 2.15832 -0.34324
			CHANNELS 3 Zrotation Yrotation Xrotation
			JOINT Chest2
			{
				OFFSET -0.01089 2.17963 0.04689
				CHANNELS 3 Zrotation Yrotation Xrotation
				JOINT lowerneck
				{
					OFFSET 0 0 0
					CHANNELS 3 Zrotation Yrotation Xrotation
					JOINT Neck
					{
						OFFSET 0.04686 1.69404 0.22159
						CHANNELS 3 Zrotation Yrotation Xrotation
						JOINT Head
						{
							OFFSET 0.00265 1.69305 -0.01513
							CHANNELS 3 Zrotation Yrotation Xrotation
							End Site
							{
								OFFSET -0.00415 1.80215 -0.03034
							}
						}
					}
				}
				JOINT LeftCollar
				{
					OFFSET 0 0 0
					CHANNELS 3 Zrotation Yrotation Xrotation
					JOINT LeftShoulder
					{
						OFFSET 3.67184 1.11724 -0.19002
CHANNELS 3 Zrotation Xrotation Yrotation
						JOINT LeftElbow
						{
OFFSET 0 -5.177140 -0.000000
CHANNELS 3 Zrotation Xrotation Yrotation
							JOINT LeftWrist
							{
OFFSET 0 -3.436790 -0.000000
CHANNELS 3 Zrotation Xrotation Yrotation
								JOINT lhand
								{
									OFFSET 0 0 0
CHANNELS 3 Zrotation Xrotation Yrotation
									JOINT LFingers
									{
OFFSET 0 -0.573120 -0.000000
CHANNELS 3 Zrotation Xrotation Yrotation
										End Site
										{
OFFSET 0 -0.462060 -0.000000
										}
									}
								}
								JOINT LThumb
								{
OFFSET 0 0.000000 0.000000
CHANNELS 3 Zrotation Xrotation Yrotation
									End Site
									{
OFFSET 0 -0.469120 0.469120
									}
								}
							}
						}
					}
				}
				JOINT RightCollar
				{
					OFFSET 0 0 0
					CHANNELS 3 Zrotation Yrotation Xrotation
					JOINT RightShoulder
					{
						OFFSET -3.59596 0.95831 -0.26050
CHANNELS 3 Zrotation Xrotation Yrotation
						JOINT RightElbow
						{
OFFSET 0 -5.239080 -0.000000
CHANNELS 3 Zrotation Xrotation Yrotation
							JOINT RightWrist
							{
OFFSET 0 -3.464850 -0.000000
CHANNELS 3 Zrotation Xrotation Yrotation
								JOINT rhand
								{
									OFFSET 0 0 0
CHANNELS 3 Zrotation Xrotation Yrotation
									JOINT RFingers
									{
OFFSET 0 -0.608750 -0.000000
CHANNELS 3 Zrotation Xrotation Yrotation
										End Site
										{
OFFSET 0 -0.490790 -0.000000
										}
									}
								}
								JOINT RThumb
								{
OFFSET 0 0.000000 0.000000
CHANNELS 3 Zrotation Xrotation Yrotation
									End Site
									{
OFFSET 0 -0.498290 0.498290
									}
								}
							}
						}
					}
				}
			}
		}
	}
}
MOTION
Frames: 12
Frame Time: .0083333
40.4926 16.0602 -17.1030 -50.2544 -80.3066 49.0584 0.0000 0.0000 0.0000 -12.5923 3.5045 -3.7792 1.5774 7.9239 22.4831 1.6592 10.7642 -30.2808 0.0789 1.8123 4.9873 0.0000 0.0000 0.0000 27.0460 2.8260 -6.6304 -2.3751 -9.6073 27.7141 -1.5450 -8.6105 -27.9788 -0.0024 -0.3163 0.8690 5.2324 -1.3182 -3.1760 2.1379 -2.2649 3.9866 -0.8894 -0.9768 5.8251 -1.6106 -4.1637 -8.5677 4.1066 -6.7566 20.4949 0.9652 -3.1065 7.9320 -0.0000 0.0000 0.0000 -0.0371 -4.0372 -20.5101 13.0538 -21.3659 2.4728 14.0204 -12.7558 -11.5347 0.0 0.0 0.0 -7.1250 0.0 0.0 -11.6983 41.569 -1.0053 -0.0000 0.0000 0.0000 -0.2417 1.2439 15.1315 -15.7687 -25.206 -3.5469 -19.1653 1.4604 5.201 0.0 0.0 0.0 7.1250 0.0 -0.0 6.2653 35.4271 1.4808
40.4956 16.0609 -17.1039 -49.6998 -80.2650 48.5348 0.0000 0.0000 0.0000 -12.6115 3.4983 -3.8335 1.5765 7.9219 22.4770 1.6538 10.6894 -30.1903 0.0787 1.8101 4.9812 0.0000 0.0000 0.0000 27.0154 2.8078 -6.6582 -2.3709 -9.5993 27.6887 -1.5438 -8.6505 -27.9981 -0.0021 -0.2986 0.8204 5.1933 -1.3443 -3.1683 2.1382 -2.2966 3.9835 -0.8695 -0.9943 5.8169 -1.6316 -4.1540 -8.5189 4.1393 -6.7441 20.4549 0.9821 -3.1005 7.9113 0.0000 -0.0000 0.0000 -0.0466 -4.0065 -20.5109 13.0994 -21.4328 2.4895 13.9476 -12.771 -11.6428 0.0 0.0 0.0 -7.1250 0.0 0.0 -11.7868 41.6708 -0.9831 0.0000 -0.0000 0.0000 -0.2578 1.2432 15.2806 -15.9605 -25.4671 -3.629 -18.7918 2.414 7.2726 0.0 0.0 0.0 7.1250 0.0 -0.0 6.8280 37.578 1.2544
40.4993 16.0618 -17.1053 -49.3027 -80.2151 48.1991 0.0000 0.0000 0.0000 -12.6057 3.4937 -3.9543 1.5776 7.9246 22.4852 1.6357 10.7017 -30.0832 0.0731 1.7444 4.7999 0.0000 0.0000 0.0000 27.0123 2.8566 -6.7154 -2.3656 -9.5894 27.6571 -1.5493 -8.6777 -28.0550 -0.0033 -0.3728 1.0243 5.1920 -1.3417 -3.1572 2.1320 -2.2903 3.9654 -0.8742 -0.9916 5.7914 -1.6668 -4.1803 -8.4865 4.1943 -6.7851 20.4305 1.0030 -3.1184 7.9019 0.0000 0.0000 0.0000 -0.0297 -4.0173 -20.5894 13.1005 -21.4343 2.4899 13.9812 -12.7487 -11.6276 0.0 0.0 0.0 -7.1250 0.0 0.0 -11.7539 41.6587 -0.9839 0.0000 0.0000 0.0000 -0.2397 1.2363 15.1137 -15.7622 -25.1971 -3.5441 -19.154 1.4876 5.2535 0.0 0.0 0.0 7.1250 0.0 -0.0 6.2804 35.4818 1.476
40.5029 16.0634 -17.1072 -48.9976 -80.1695 47.9371 0.0000 0.0000 0.0000 -12.5912 3.4738 -4.0256 1.5779 7.9251 22.4869 1.6354 10.6315 -30.0288 0.0759 1.7771 4.8902 0.0000 0.0000 0.0000 27.0241 2.8943 -6.7475 -2.3614 -9.5813 27.6313 -1.5567 -8.6941 -28.1172 -0.0043 -0.4236 1.1639 5.1789 -1.3502 -3.1288 2.1392 -2.2984 3.9530 -0.8592 -0.9972 5.7622 -1.6560 -4.1701 -8.4975 4.1903 -6.7715 20.4338 1.0009 -3.1111 7.9040 -0.0000 -0.0000 0.0000 -0.0209 -4.0217 -20.6486 13.1176 -21.4592 2.4961 13.9816 -12.8152 -11.6706 0.0 0.0 0.0 -7.1250 0.0 0.0 -11.7635 41.7018 -0.972 -0.0000 -0.0000 0.0000 -0.2469 1.2372 15.1924 -15.8776 -25.3545 -3.5934 -18.9407 1.9679 6.3136 0.0 0.0 0.0 7.1250 0.0 -0.0 6.5803 36.5829 1.3695
40.5067 16.0644 -17.1089 -48.6039 -80.1292 47.5877 0.0000 0.0000 0.0000 -12.5926 3.4674 -4.1125 1.5785 7.9266 22.4914 1.6256 10.6001 -29.9424 0.0741 1.7563 4.8328 0.0000 0.0000 0.0000 27.0162 2.9368 -6.7841 -2.3570 -9.5731 27.6051 -1.5626 -8.7189 -28.1752 -0.0055 -0.4782 1.3140 5.1564 -1.3584 -3.1070 2.1391 -2.3055 3.9418 -0.8466 -1.0023 5.7381 -1.6594 -4.1701 -8.4977 4.2031 -6.7735 20.4324 1.0055 -3.1110 7.9043 0.0000 -0.0000 0.0000 -0.0122 -4.017 -20.7088 13.1396 -21.4915 2.5042 13.9904 -12.8503 -11.6942 0.0 0.0 0.0 -7.1250 0.0 0.0 -11.7612 41.7264 -0.9645 0.0000 -0.0000 0.0000 -0.2486 1.2266 15.191 -15.8715 -25.346 -3.5908 -18.9495 1.9071 6.2336 0.0 0.0 0.0 7.1250 0.0 -0.0 6.5633 36.4995 1.3793
40.5106 16.0655 -17.1107 -48.1987 -80.0942 47.2253 0.0000 0.0000 0.0000 -12.6006 3.4644 -4.1931 1.5775 7.9243 22.4843 1.6137 10.5781 -29.8486 0.0719 1.7298 4.7596 0.0000 0.0000 0.0000 27.0026 2.9861 -6.8244 -2.3546 -9.5687 27.5910 -1.5696 -8.7432 -28.2397 -0.0069 -0.5345 1.4688 5.1272 -1.3662 -3.0840 2.1374 -2.3117 3.9329 -0.8318 -1.0071 5.7160 -1.6570 -4.1704 -8.5111 4.2074 -6.7753 20.4401 1.0060 -3.1108 7.9094 0.0000 -0.0000 0.0000 -0.002 -4.0175 -20.7702 13.1596 -21.5206 2.5115 14.0065 -12.8849 -11.7104 0.0 0.0 0.0 -7.1250 0.0 0.0 -11.7510 41.7441 -0.9585 0.0000 -0.0000 0.0000 -0.2504 1.2094 15.1842 -15.8504 -25.3174 -3.5817 -18.9954 1.7573 5.9843 0.0 0.0 0.0 7.1250 0.0 -0.0 6.4951 36.2408 1.4061
40.5147 16.0667 -17.1125 -47.7728 -80.0648 46.8389 0.0000 0.0000 0.0000 -12.6166 3.4630 -4.2669 1.5759 7.9205 22.4728 1.6019 10.5543 -29.7534 0.0699 1.7055 4.6924 0.0000 0.0000 0.0000 26.9813 3.0279 -6.8650 -2.3532 -9.5660 27.5823 -1.5753 -8.7715 -28.2984 -0.0080 -0.5785 1.5896 5.0913 -1.3755 -3.0593 2.1336 -2.3193 3.9263 -0.8155 -1.0127 5.6953 -1.6490 -4.1687 -8.5314 4.2041 -6.7740 20.4530 1.0031 -3.1092 7.9169 -0.0000 0.0000 0.0000 0.0076 -4.0228 -20.8177 13.1748 -21.5428 2.5171 14.0225 -12.9111 -11.72 0.0 0.0 0.0 -7.1250 0.0 0.0 -11.7392 41.7553 -0.9542 -0.0000 0.0000 0.0000 -0.2534 1.189 15.193 -15.8409 -25.3044 -3.5777 -19.0295 1.6505 5.8355 0.0 0.0 0.0 7.1250 0.0 -0.0 6.4494 36.0864 1.4205
40.5192 16.0681 -17.1140 -47.4092 -80.0496 46.5163 0.0000 0.0000 0.0000 -12.6419 3.4599 -4.3374 1.5737 7.9151 22.4566 1.5897 10.5472 -29.6683 0.0679 1.6813 4.6257 0.0000 0.0000 0.0000 26.9525 3.0681 -6.9148 -2.3530 -9.5657 27.5814 -1.5783 -8.7995 -28.3382 -0.0089 -0.6084 1.6720 5.0578 -1.3793 -3.0312 2.1271 -2.3192 3.9186 -0.8028 -1.0144 5.6718 -1.6413 -4.1688 -8.5483 4.1999 -6.7749 20.4650 0.9999 -3.1088 7.9236 -0.0000 0.0000 0.0000 0.0184 -4.0263 -20.8635 13.1896 -21.5644 2.5225 14.0388 -12.9287 -11.7305 0.0 0.0 0.0 -7.1250 0.0 0.0 -11.7274 41.7674 -0.9496 -0.0000 0.0000 0.0000 -0.2552 1.1688 15.202 -15.8282 -25.2871 -3.5723 -19.0753 1.5226 5.6327 0.0 0.0 0.0 7.1250 0.0 -0.0 6.3879 35.876 1.4398
40.5241 16.0696 -17.1151 -47.1508 -80.0453 46.3001 0.0000 0.0000 0.0000 -12.6685 3.4481 -4.4017 1.5713 7.9095 22.4394 1.5811 10.5438 -29.6095 0.0674 1.6747 4.6075 0.0000 0.0000 0.0000 26.9239 3.1021 -6.9733 -2.3537 -9.5670 27.5855 -1.5779 -8.8257 -28.3537 -0.0093 -0.6211 1.7067 5.0350 -1.3769 -3.0018 2.1206 -2.3115 3.9108 -0.7952 -1.0119 5.6475 -1.6320 -4.1696 -8.5686 4.1905 -6.7761 20.4799 0.9946 -3.1088 7.9316 -0.0000 0.0000 0.0000 0.0276 -4.0351 -20.8951 13.1980 -21.5766 2.5256 14.0505 -12.9312 -11.7349 0.0 0.0 0.0 -7.1250 0.0 0.0 -11.7183 41.7729 -0.9473 -0.0000 0.0000 0.0000 -0.2585 1.1489 15.2248 -15.8313 -25.2913 -3.5736 -19.1038 1.458 5.5548 0.0 0.0 0.0 7.1250 0.0 -0.0 6.3554 35.7957 1.4449
40.5291 16.0713 -17.1158 -47.0118 -80.0505 46.2046 0.0000 0.0000 0.0000 -12.6928 3.4331 -4.4645 1.5694 7.9048 22.4253 1.5752 10.5468 -29.5730 0.0678 1.6795 4.6207 0.0000 0.0000 0.0000 26.8989 3.1290 -7.0387 -2.3547 -9.5688 27.5912 -1.5741 -8.8475 -28.3421 -0.0092 -0.6200 1.7038 5.0261 -1.3674 -2.9721 2.1145 -2.2951 3.9024 -0.7945 -1.0046 5.6223 -1.6234 -4.1722 -8.5741 4.1809 -6.7794 20.4881 0.9895 -3.1103 7.9348 0.0000 -0.0000 0.0000 0.0362 -4.0487 -20.9176 13.2017 -21.5821 2.527 14.0584 -12.9137 -11.7617 0.0 0.0 0.0 -7.1250 0.0 0.0 -11.7175 41.8006 -0.9391 0.0000 -0.0000 0.0000 -0.2617 1.1323 15.2586 -15.8495 -25.3162 -3.5814 -19.1073 1.4531 5.5896 0.0 0.0 0.0 7.1250 0.0 -0.0 6.3564 35.8324 1.4394
40.5340 16.0729 -17.1162 -46.9867 -80.0576 46.2209 0.0000 0.0000 0.0000 -12.7074 3.4189 -4.5252 1.5682 7.9020 22.4169 1.5713 10.5535 -29.5521 0.0686 1.6897 4.6488 0.0000 0.0000 0.0000 26.8828 3.1518 -7.1054 -2.3554 -9.5702 27.5957 -1.5680 -8.8646 -28.3125 -0.0090 -0.6116 1.6808 5.0356 -1.3528 -2.9421 2.1104 -2.2733 3.8941 -0.8015 -0.9940 5.5969 -1.6144 -4.1749 -8.5736 4.1698 -6.7829 20.4966 0.9840 -3.1122 7.9369 0.0000 -0.0000 0.0000 0.0449 -4.059 -20.9435 13.2047 -21.5864 2.5281 14.0597 -12.9016 -11.7726 0.0 0.0 0.0 -7.1250 0.0 0.0 -11.7189 41.8117 -0.9359 0.0000 -0.0000 0.0000 -0.2658 1.1154 15.2937 -15.8675 -25.3406 -3.5891 -19.1115 1.452 5.6279 0.0 0.0 0.0 7.1250 0.0 -0.0 6.3573 35.8729 1.4333
40.5387 16.0742 -17.1163 -47.0236 -80.0602 46.2959 0.0000 0.0000 0.0000 -12.7121 3.4021 -4.5826 1.5679 7.9013 22.4147 1.5695 10.5580 -29.5436 0.0698 1.7045 4.6898 0.0000 0.0000 0.0000 26.8760 3.1670 -7.1698 -2.3557 -9.5708 27.5976 -1.5612 -8.8752 -28.2732 -0.0088 -0.6042 1.6604 5.0577 -1.3374 -2.9173 2.1097 -2.2518 3.8893 -0.8122 -0.9829 5.5779 -1.6066 -4.1776 -8.5704 4.1577 -6.7859 20.5045 0.9785 -3.1141 7.9384 0.0000 -0.0000 0.0000 0.0516 -4.0676 -20.9708 13.2116 -21.5964 2.5306 14.0564 -12.8906 -11.7894 0.0 0.0 0.0 -7.1250 0.0 0.0 -11.7258 41.8283 -0.9316 0.0000 -0.0000 0.0000 -0.2734 1.0922 15.3325 -15.8839 -25.363 -3.5961 -19.1151 1.4496 5.6675 0.0 0.0 0.0 7.1250 0.0 -0.0 6.3587 35.9146 1.4272
